# xmcd
#
# Track frame offsets:
#  150
#  8441
#  24165
#  37862
#  53110
#  66581
#  82838
#  96367
#  107223
#
# Disc length: 1705 seconds
#
# Revision: 0
# Processed by: cddbd v1.4PL0 Copyright (c) Steve Scherf et al.
# Submitted via: AltoMP3_Maker 3.0
#
DISCID=6106a709
DTITLE=Spanky Nyne - Best Boots
DYEAR=1900
DGENRE=
TTITLE0=Boogie Blues (intro)
TTITLE1=Renee's Song
TTITLE2=Tonight
TTITLE3=Fate
TTITLE4=Best Boots
TTITLE5=Fall Apart
TTITLE6=Headin' To Tennesse
TTITLE7=Boogie Woogie Country Boy
TTITLE8=Kentucky Is My Home
EXTD=
EXTT0=
EXTT1=
EXTT2=
EXTT3=
EXTT4=
EXTT5=
EXTT6=
EXTT7=
EXTT8=
PLAYORDER=
